<mxfile host="app.diagrams.net" modified="2022-03-19T07:05:42.126Z" agent="5.0 (Windows)" etag="jv72p-JRZcwFSvfaRUvP" version="17.1.3" type="github">
  <diagram id="fFNyH6TRn0v8eZ1Dh6Cj" name="Page-1">
    <mxGraphModel dx="982" dy="539" grid="1" gridSize="10" guides="1" tooltips="1" connect="1" arrows="1" fold="1" page="1" pageScale="1" pageWidth="850" pageHeight="1100" math="0" shadow="0">
      <root>
        <mxCell id="0" />
        <mxCell id="1" parent="0" />
        <mxCell id="475nKgrvsCNZBqdeuxdX-16" value="&lt;div align=&quot;left&quot;&gt;1a)&lt;/div&gt;" style="rounded=0;whiteSpace=wrap;html=1;fillColor=none;align=left;" vertex="1" parent="1">
          <mxGeometry x="200" y="390" width="480" height="140" as="geometry" />
        </mxCell>
        <mxCell id="475nKgrvsCNZBqdeuxdX-17" value="&lt;div align=&quot;left&quot;&gt;1b)&lt;/div&gt;" style="rounded=0;whiteSpace=wrap;html=1;fillColor=none;align=left;" vertex="1" parent="1">
          <mxGeometry x="200" y="550" width="480" height="140" as="geometry" />
        </mxCell>
        <mxCell id="475nKgrvsCNZBqdeuxdX-1" value="professors" style="swimlane;childLayout=stackLayout;horizontal=1;startSize=30;horizontalStack=0;rounded=1;fontSize=14;fontStyle=0;strokeWidth=2;resizeParent=0;resizeLast=1;shadow=0;dashed=0;align=center;" vertex="1" parent="1">
          <mxGeometry x="240" y="400" width="100" height="120" as="geometry" />
        </mxCell>
        <mxCell id="475nKgrvsCNZBqdeuxdX-2" value="SSN" style="align=left;strokeColor=none;fillColor=none;spacingLeft=4;fontSize=12;verticalAlign=top;resizable=0;rotatable=0;part=1;fontStyle=4" vertex="1" parent="475nKgrvsCNZBqdeuxdX-1">
          <mxGeometry y="30" width="100" height="90" as="geometry" />
        </mxCell>
        <mxCell id="475nKgrvsCNZBqdeuxdX-3" value="courses" style="swimlane;childLayout=stackLayout;horizontal=1;startSize=30;horizontalStack=0;rounded=1;fontSize=14;fontStyle=0;strokeWidth=2;resizeParent=0;resizeLast=1;shadow=0;dashed=0;align=center;" vertex="1" parent="1">
          <mxGeometry x="540" y="400" width="100" height="120" as="geometry" />
        </mxCell>
        <mxCell id="475nKgrvsCNZBqdeuxdX-4" value="Course_ID" style="align=left;strokeColor=none;fillColor=none;spacingLeft=4;fontSize=12;verticalAlign=top;resizable=0;rotatable=0;part=1;fontStyle=4" vertex="1" parent="475nKgrvsCNZBqdeuxdX-3">
          <mxGeometry y="30" width="100" height="90" as="geometry" />
        </mxCell>
        <mxCell id="475nKgrvsCNZBqdeuxdX-5" value="Teach" style="shape=rhombus;perimeter=rhombusPerimeter;whiteSpace=wrap;html=1;align=center;" vertex="1" parent="1">
          <mxGeometry x="380" y="445" width="120" height="60" as="geometry" />
        </mxCell>
        <mxCell id="475nKgrvsCNZBqdeuxdX-7" style="edgeStyle=orthogonalEdgeStyle;rounded=0;orthogonalLoop=1;jettySize=auto;html=1;endArrow=none;endFill=0;" edge="1" parent="1" source="475nKgrvsCNZBqdeuxdX-2" target="475nKgrvsCNZBqdeuxdX-5">
          <mxGeometry relative="1" as="geometry" />
        </mxCell>
        <mxCell id="475nKgrvsCNZBqdeuxdX-8" style="edgeStyle=orthogonalEdgeStyle;rounded=0;orthogonalLoop=1;jettySize=auto;html=1;entryX=1;entryY=0.5;entryDx=0;entryDy=0;endArrow=none;endFill=0;" edge="1" parent="1" source="475nKgrvsCNZBqdeuxdX-4" target="475nKgrvsCNZBqdeuxdX-5">
          <mxGeometry relative="1" as="geometry" />
        </mxCell>
        <mxCell id="475nKgrvsCNZBqdeuxdX-9" value="professors" style="swimlane;childLayout=stackLayout;horizontal=1;startSize=30;horizontalStack=0;rounded=1;fontSize=14;fontStyle=0;strokeWidth=2;resizeParent=0;resizeLast=1;shadow=0;dashed=0;align=center;" vertex="1" parent="1">
          <mxGeometry x="240" y="560" width="100" height="120" as="geometry" />
        </mxCell>
        <mxCell id="475nKgrvsCNZBqdeuxdX-10" value="SSN" style="align=left;strokeColor=none;fillColor=none;spacingLeft=4;fontSize=12;verticalAlign=top;resizable=0;rotatable=0;part=1;fontStyle=4" vertex="1" parent="475nKgrvsCNZBqdeuxdX-9">
          <mxGeometry y="30" width="100" height="90" as="geometry" />
        </mxCell>
        <mxCell id="475nKgrvsCNZBqdeuxdX-11" value="courses" style="swimlane;childLayout=stackLayout;horizontal=1;startSize=30;horizontalStack=0;rounded=1;fontSize=14;fontStyle=0;strokeWidth=2;resizeParent=0;resizeLast=1;shadow=0;dashed=0;align=center;" vertex="1" parent="1">
          <mxGeometry x="540" y="560" width="100" height="120" as="geometry" />
        </mxCell>
        <mxCell id="475nKgrvsCNZBqdeuxdX-12" value="Course_ID" style="align=left;strokeColor=none;fillColor=none;spacingLeft=4;fontSize=12;verticalAlign=top;resizable=0;rotatable=0;part=1;fontStyle=4" vertex="1" parent="475nKgrvsCNZBqdeuxdX-11">
          <mxGeometry y="30" width="100" height="90" as="geometry" />
        </mxCell>
        <mxCell id="475nKgrvsCNZBqdeuxdX-13" value="Teach" style="shape=rhombus;perimeter=rhombusPerimeter;whiteSpace=wrap;html=1;align=center;" vertex="1" parent="1">
          <mxGeometry x="380" y="605" width="120" height="60" as="geometry" />
        </mxCell>
        <mxCell id="475nKgrvsCNZBqdeuxdX-14" style="edgeStyle=orthogonalEdgeStyle;rounded=0;orthogonalLoop=1;jettySize=auto;html=1;endArrow=none;endFill=0;shape=link;" edge="1" parent="1" source="475nKgrvsCNZBqdeuxdX-10" target="475nKgrvsCNZBqdeuxdX-13">
          <mxGeometry relative="1" as="geometry" />
        </mxCell>
        <mxCell id="475nKgrvsCNZBqdeuxdX-15" style="edgeStyle=orthogonalEdgeStyle;rounded=0;orthogonalLoop=1;jettySize=auto;html=1;entryX=1;entryY=0.5;entryDx=0;entryDy=0;endArrow=none;endFill=0;" edge="1" parent="1" source="475nKgrvsCNZBqdeuxdX-12" target="475nKgrvsCNZBqdeuxdX-13">
          <mxGeometry relative="1" as="geometry" />
        </mxCell>
        <mxCell id="475nKgrvsCNZBqdeuxdX-18" value="&lt;div align=&quot;left&quot;&gt;1c)&lt;/div&gt;" style="rounded=0;whiteSpace=wrap;html=1;fillColor=none;align=left;" vertex="1" parent="1">
          <mxGeometry x="200" y="710" width="480" height="140" as="geometry" />
        </mxCell>
        <mxCell id="475nKgrvsCNZBqdeuxdX-19" value="professors" style="swimlane;childLayout=stackLayout;horizontal=1;startSize=30;horizontalStack=0;rounded=1;fontSize=14;fontStyle=0;strokeWidth=2;resizeParent=0;resizeLast=1;shadow=0;dashed=0;align=center;" vertex="1" parent="1">
          <mxGeometry x="240" y="720" width="100" height="120" as="geometry" />
        </mxCell>
        <mxCell id="475nKgrvsCNZBqdeuxdX-20" value="SSN" style="align=left;strokeColor=none;fillColor=none;spacingLeft=4;fontSize=12;verticalAlign=top;resizable=0;rotatable=0;part=1;fontStyle=4" vertex="1" parent="475nKgrvsCNZBqdeuxdX-19">
          <mxGeometry y="30" width="100" height="90" as="geometry" />
        </mxCell>
        <mxCell id="475nKgrvsCNZBqdeuxdX-21" value="courses" style="swimlane;childLayout=stackLayout;horizontal=1;startSize=30;horizontalStack=0;rounded=1;fontSize=14;fontStyle=0;strokeWidth=2;resizeParent=0;resizeLast=1;shadow=0;dashed=0;align=center;" vertex="1" parent="1">
          <mxGeometry x="540" y="720" width="100" height="120" as="geometry" />
        </mxCell>
        <mxCell id="475nKgrvsCNZBqdeuxdX-22" value="Course_ID" style="align=left;strokeColor=none;fillColor=none;spacingLeft=4;fontSize=12;verticalAlign=top;resizable=0;rotatable=0;part=1;fontStyle=4" vertex="1" parent="475nKgrvsCNZBqdeuxdX-21">
          <mxGeometry y="30" width="100" height="90" as="geometry" />
        </mxCell>
        <mxCell id="475nKgrvsCNZBqdeuxdX-23" value="Teach" style="shape=rhombus;perimeter=rhombusPerimeter;whiteSpace=wrap;html=1;align=center;" vertex="1" parent="1">
          <mxGeometry x="380" y="765" width="120" height="60" as="geometry" />
        </mxCell>
        <mxCell id="475nKgrvsCNZBqdeuxdX-24" style="edgeStyle=orthogonalEdgeStyle;rounded=0;orthogonalLoop=1;jettySize=auto;html=1;endArrow=none;endFill=0;shape=link;" edge="1" parent="1" source="475nKgrvsCNZBqdeuxdX-20" target="475nKgrvsCNZBqdeuxdX-23">
          <mxGeometry relative="1" as="geometry" />
        </mxCell>
        <mxCell id="475nKgrvsCNZBqdeuxdX-25" style="edgeStyle=orthogonalEdgeStyle;rounded=0;orthogonalLoop=1;jettySize=auto;html=1;entryX=1;entryY=0.5;entryDx=0;entryDy=0;endArrow=none;endFill=0;startArrow=classic;startFill=1;" edge="1" parent="1" source="475nKgrvsCNZBqdeuxdX-22" target="475nKgrvsCNZBqdeuxdX-23">
          <mxGeometry relative="1" as="geometry" />
        </mxCell>
        <mxCell id="475nKgrvsCNZBqdeuxdX-26" value="&lt;div align=&quot;left&quot;&gt;1d)&lt;/div&gt;" style="rounded=0;whiteSpace=wrap;html=1;fillColor=none;align=left;" vertex="1" parent="1">
          <mxGeometry x="200" y="870" width="480" height="140" as="geometry" />
        </mxCell>
        <mxCell id="475nKgrvsCNZBqdeuxdX-27" value="professors" style="swimlane;childLayout=stackLayout;horizontal=1;startSize=30;horizontalStack=0;rounded=1;fontSize=14;fontStyle=0;strokeWidth=2;resizeParent=0;resizeLast=1;shadow=0;dashed=0;align=center;" vertex="1" parent="1">
          <mxGeometry x="240" y="880" width="100" height="120" as="geometry" />
        </mxCell>
        <mxCell id="475nKgrvsCNZBqdeuxdX-28" value="SSN" style="align=left;strokeColor=none;fillColor=none;spacingLeft=4;fontSize=12;verticalAlign=top;resizable=0;rotatable=0;part=1;fontStyle=4" vertex="1" parent="475nKgrvsCNZBqdeuxdX-27">
          <mxGeometry y="30" width="100" height="90" as="geometry" />
        </mxCell>
        <mxCell id="475nKgrvsCNZBqdeuxdX-29" value="courses" style="swimlane;childLayout=stackLayout;horizontal=1;startSize=30;horizontalStack=0;rounded=1;fontSize=14;fontStyle=0;strokeWidth=2;resizeParent=0;resizeLast=1;shadow=0;dashed=0;align=center;" vertex="1" parent="1">
          <mxGeometry x="540" y="880" width="100" height="120" as="geometry" />
        </mxCell>
        <mxCell id="475nKgrvsCNZBqdeuxdX-30" value="Course_ID" style="align=left;strokeColor=none;fillColor=none;spacingLeft=4;fontSize=12;verticalAlign=top;resizable=0;rotatable=0;part=1;fontStyle=4" vertex="1" parent="475nKgrvsCNZBqdeuxdX-29">
          <mxGeometry y="30" width="100" height="90" as="geometry" />
        </mxCell>
        <mxCell id="475nKgrvsCNZBqdeuxdX-31" value="Teach" style="shape=rhombus;perimeter=rhombusPerimeter;whiteSpace=wrap;html=1;align=center;" vertex="1" parent="1">
          <mxGeometry x="380" y="925" width="120" height="60" as="geometry" />
        </mxCell>
        <mxCell id="475nKgrvsCNZBqdeuxdX-32" style="edgeStyle=orthogonalEdgeStyle;rounded=0;orthogonalLoop=1;jettySize=auto;html=1;endArrow=none;endFill=0;startArrow=classic;startFill=1;shape=link;" edge="1" parent="1" source="475nKgrvsCNZBqdeuxdX-28" target="475nKgrvsCNZBqdeuxdX-31">
          <mxGeometry relative="1" as="geometry" />
        </mxCell>
        <mxCell id="475nKgrvsCNZBqdeuxdX-34" value="1..1" style="edgeLabel;html=1;align=center;verticalAlign=middle;resizable=0;points=[];fontSize=13;" vertex="1" connectable="0" parent="475nKgrvsCNZBqdeuxdX-32">
          <mxGeometry x="0.2333" relative="1" as="geometry">
            <mxPoint x="-5" y="-15" as="offset" />
          </mxGeometry>
        </mxCell>
        <mxCell id="475nKgrvsCNZBqdeuxdX-33" style="edgeStyle=orthogonalEdgeStyle;rounded=0;orthogonalLoop=1;jettySize=auto;html=1;entryX=1;entryY=0.5;entryDx=0;entryDy=0;endArrow=none;endFill=0;startArrow=classic;startFill=1;shape=link;" edge="1" parent="1" source="475nKgrvsCNZBqdeuxdX-30" target="475nKgrvsCNZBqdeuxdX-31">
          <mxGeometry relative="1" as="geometry" />
        </mxCell>
        <mxCell id="475nKgrvsCNZBqdeuxdX-35" value="1..1" style="edgeLabel;html=1;align=center;verticalAlign=middle;resizable=0;points=[];fontSize=13;" vertex="1" connectable="0" parent="475nKgrvsCNZBqdeuxdX-33">
          <mxGeometry x="0.2429" y="4" relative="1" as="geometry">
            <mxPoint x="5" y="-19" as="offset" />
          </mxGeometry>
        </mxCell>
        <mxCell id="475nKgrvsCNZBqdeuxdX-51" style="edgeStyle=orthogonalEdgeStyle;rounded=0;orthogonalLoop=1;jettySize=auto;html=1;entryX=0;entryY=0.5;entryDx=0;entryDy=0;fontSize=13;startArrow=classic;startFill=1;endArrow=none;endFill=0;strokeColor=default;" edge="1" parent="1" source="475nKgrvsCNZBqdeuxdX-40" target="475nKgrvsCNZBqdeuxdX-50">
          <mxGeometry relative="1" as="geometry" />
        </mxCell>
        <mxCell id="475nKgrvsCNZBqdeuxdX-40" value="artists" style="swimlane;fontStyle=0;childLayout=stackLayout;horizontal=1;startSize=26;horizontalStack=0;resizeParent=1;resizeParentMax=0;resizeLast=0;collapsible=1;marginBottom=0;align=center;fontSize=14;fillColor=none;" vertex="1" parent="1">
          <mxGeometry x="200" y="1120" width="120" height="146" as="geometry">
            <mxRectangle x="220" y="1120" width="70" height="26" as="alternateBounds" />
          </mxGeometry>
        </mxCell>
        <mxCell id="475nKgrvsCNZBqdeuxdX-41" value="name" style="text;strokeColor=none;fillColor=none;spacingLeft=4;spacingRight=4;overflow=hidden;rotatable=0;points=[[0,0.5],[1,0.5]];portConstraint=eastwest;fontSize=12;fontStyle=4" vertex="1" parent="475nKgrvsCNZBqdeuxdX-40">
          <mxGeometry y="26" width="120" height="30" as="geometry" />
        </mxCell>
        <mxCell id="475nKgrvsCNZBqdeuxdX-42" value="birthplace" style="text;strokeColor=none;fillColor=none;spacingLeft=4;spacingRight=4;overflow=hidden;rotatable=0;points=[[0,0.5],[1,0.5]];portConstraint=eastwest;fontSize=12;" vertex="1" parent="475nKgrvsCNZBqdeuxdX-40">
          <mxGeometry y="56" width="120" height="30" as="geometry" />
        </mxCell>
        <mxCell id="475nKgrvsCNZBqdeuxdX-43" value="age" style="text;strokeColor=none;fillColor=none;spacingLeft=4;spacingRight=4;overflow=hidden;rotatable=0;points=[[0,0.5],[1,0.5]];portConstraint=eastwest;fontSize=12;" vertex="1" parent="475nKgrvsCNZBqdeuxdX-40">
          <mxGeometry y="86" width="120" height="30" as="geometry" />
        </mxCell>
        <mxCell id="475nKgrvsCNZBqdeuxdX-44" value="style" style="text;strokeColor=none;fillColor=none;spacingLeft=4;spacingRight=4;overflow=hidden;rotatable=0;points=[[0,0.5],[1,0.5]];portConstraint=eastwest;fontSize=12;" vertex="1" parent="475nKgrvsCNZBqdeuxdX-40">
          <mxGeometry y="116" width="120" height="30" as="geometry" />
        </mxCell>
        <mxCell id="475nKgrvsCNZBqdeuxdX-52" style="edgeStyle=orthogonalEdgeStyle;rounded=0;orthogonalLoop=1;jettySize=auto;html=1;entryX=1;entryY=0.5;entryDx=0;entryDy=0;fontSize=13;startArrow=none;startFill=0;endArrow=none;endFill=0;strokeColor=default;" edge="1" parent="1" source="475nKgrvsCNZBqdeuxdX-45" target="475nKgrvsCNZBqdeuxdX-50">
          <mxGeometry relative="1" as="geometry" />
        </mxCell>
        <mxCell id="475nKgrvsCNZBqdeuxdX-45" value="artwork" style="swimlane;fontStyle=0;childLayout=stackLayout;horizontal=1;startSize=26;horizontalStack=0;resizeParent=1;resizeParentMax=0;resizeLast=0;collapsible=1;marginBottom=0;align=center;fontSize=14;fillColor=none;" vertex="1" parent="1">
          <mxGeometry x="560" y="1120" width="120" height="146" as="geometry">
            <mxRectangle x="220" y="1120" width="70" height="26" as="alternateBounds" />
          </mxGeometry>
        </mxCell>
        <mxCell id="475nKgrvsCNZBqdeuxdX-46" value="title" style="text;strokeColor=none;fillColor=none;spacingLeft=4;spacingRight=4;overflow=hidden;rotatable=0;points=[[0,0.5],[1,0.5]];portConstraint=eastwest;fontSize=12;fontStyle=4" vertex="1" parent="475nKgrvsCNZBqdeuxdX-45">
          <mxGeometry y="26" width="120" height="30" as="geometry" />
        </mxCell>
        <mxCell id="475nKgrvsCNZBqdeuxdX-47" value="year" style="text;strokeColor=none;fillColor=none;spacingLeft=4;spacingRight=4;overflow=hidden;rotatable=0;points=[[0,0.5],[1,0.5]];portConstraint=eastwest;fontSize=12;" vertex="1" parent="475nKgrvsCNZBqdeuxdX-45">
          <mxGeometry y="56" width="120" height="30" as="geometry" />
        </mxCell>
        <mxCell id="475nKgrvsCNZBqdeuxdX-48" value="type" style="text;strokeColor=none;fillColor=none;spacingLeft=4;spacingRight=4;overflow=hidden;rotatable=0;points=[[0,0.5],[1,0.5]];portConstraint=eastwest;fontSize=12;" vertex="1" parent="475nKgrvsCNZBqdeuxdX-45">
          <mxGeometry y="86" width="120" height="30" as="geometry" />
        </mxCell>
        <mxCell id="475nKgrvsCNZBqdeuxdX-49" value="price" style="text;strokeColor=none;fillColor=none;spacingLeft=4;spacingRight=4;overflow=hidden;rotatable=0;points=[[0,0.5],[1,0.5]];portConstraint=eastwest;fontSize=12;" vertex="1" parent="475nKgrvsCNZBqdeuxdX-45">
          <mxGeometry y="116" width="120" height="30" as="geometry" />
        </mxCell>
        <mxCell id="475nKgrvsCNZBqdeuxdX-50" value="Relationship" style="shape=rhombus;perimeter=rhombusPerimeter;whiteSpace=wrap;html=1;align=center;fontSize=13;fillColor=none;" vertex="1" parent="1">
          <mxGeometry x="380" y="1163" width="120" height="60" as="geometry" />
        </mxCell>
      </root>
    </mxGraphModel>
  </diagram>
</mxfile>
